<svg xmlns="http://www.w3.org/2000/svg" width="40" height="35" viewBox="0 0 40 35">
    <g fill="none" fill-rule="nonzero">
        <path fill="#F0F9FF" d="M36.478 0H3.522C1.58 0 0 1.549 0 3.453V31.5c0 1.904 1.58 3.453 3.522 3.453h32.956c1.942 0 3.522-1.55 3.522-3.453V3.453C40 1.549 38.42 0 36.478 0z"/>
        <path fill="#F40055" d="M15.514 12.294L1.347.741A3.454 3.454 0 0 0 .104 2.62l12.824 10.458h2.586v-.785z"/>
        <path fill="#C20044" d="M24.486 13.079h2.651l12.77-10.414a3.45 3.45 0 0 0-1.22-1.899l-14.2 11.58v.733z"/>
        <path fill="#F40055" d="M12.928 21.875L.104 32.333a3.453 3.453 0 0 0 1.243 1.88l14.167-11.554v-.784h-2.586z"/>
        <path fill="#C20044" d="M24.486 21.875v.732l14.2 11.58a3.45 3.45 0 0 0 1.22-1.899L27.137 21.875h-2.65z"/>
        <path fill="#406BD4" d="M4.162 0l11.352 9.258V0z"/>
        <path fill="#3257B0" d="M24.486 9.402V0h11.57zM30.838 13.079L40 5.607v7.472z"/>
        <path fill="#406BD4" d="M0 5.477v7.602h9.321zM0 21.875v7.482l9.175-7.482zM3.945 34.954l11.569-9.396v9.396z"/>
        <path fill="#3257B0" d="M24.486 34.954v-9.508l11.658 9.508zM40 29.227l-9.015-7.352H40z"/>
        <path fill="#F40055" d="M40 14.884H22.645V0h-5.29v14.884H0v5.186h17.355v14.884h5.29V20.07H40z"/>
        <path fill="#C20044" d="M22.645 14.884V0H20v34.954h2.645V20.07H40v-5.186z"/>
    </g>
</svg>
