<svg xmlns="http://www.w3.org/2000/svg" xmlns:xlink="http://www.w3.org/1999/xlink" width="198" height="180" viewBox="0 0 198 180">
    <defs>
        <path id="a" d="M32.5.164s-6.495 5.53-7.886 11.98c-1.392 6.452-8.35 17.972-8.35 17.972L.03 37.333s-.463 7.528 2.32 7.528 20.41-3.226 21.337-4.608c.928-1.382 20.874-27.647 20.874-27.647S46.415-1.68 32.5.164z"/>
        <path id="b" d="M32.5.164s-6.495 5.53-7.886 11.98c-1.392 6.452-8.35 17.972-8.35 17.972L.03 37.333s-.463 7.528 2.32 7.528 20.41-3.226 21.337-4.608c.928-1.382 20.874-27.647 20.874-27.647S46.415-1.68 32.5.164z"/>
        <path id="d" d="M4.986 0s4.186 8.24 6.7 8.12c2.516-.12 4.911-1.68 6.109 3.237 1.198 4.917-.24 3.598 1.198 6.477 1.437 2.878 1.676 7.915-1.078 9.114-2.755 1.2-5.27 1.32-5.39 0-.12-1.32 2.396-1.32-.479-5.996C9.172 16.274 3.063 7.76.548 6.92-1.967 6.08 4.986 0 4.986 0z"/>
    </defs>
    <g fill="none" fill-rule="evenodd">
        <path fill="#FBBEBE" fill-rule="nonzero" d="M57 82.537s-.414 14.908-4.281 15.445c-3.867.538 0-11.416 0-11.416L52.857 82l4.143.537z"/>
        <path fill="#9493B6" fill-rule="nonzero" d="M45.582 87s25.063 1.587 31.531 7.536c6.468 5.95-5.66 28.16-7.007 28.425-1.347.264-11.858-.793-11.454-3.702.405-2.909 7.546-14.807 7.546-14.807s-9.297-3.306-14.418-4.099C46.66 99.56 41 95.858 41 95.858L45.582 87z"/>
        <path fill="#FBBEBE" fill-rule="nonzero" d="M70 120.637s-11.319 16.529-9.432 21.084c1.886 4.555.88 7.418 4.653 8.98 3.773 1.562 4.779 4.425 1.51 4.295-3.27-.13-7.546-1.041-8.175-2.213-.63-1.171-2.138-6.767-4.276-7.548-2.138-.781-6.162-3.774-3.27-7.418 2.893-3.645 10.18-17.067 9.618-18.425-.563-1.358 9.372 1.245 9.372 1.245z"/>
        <path fill="#000" fill-rule="nonzero" d="M45 44.366s7.269-1.995 8.667 3.326c1.398 5.32 1.817 23.676 1.817 23.676L58 86s-4.613-1.33-5.591-.665l-5.871-7.05L45 44.366z" opacity=".1"/>
        <g fill-rule="nonzero" transform="matrix(-1 0 0 1 142.96 2)">
            <path fill="#FFB8B8" d="M40.442 24.1s1.468 7.655 2.275 11.072c.807 3.417 15.837-6.961 15.837-6.961s-5.967-6.193-5.565-8.462c.403-2.269-12.547 4.351-12.547 4.351z"/>
            <ellipse cx="44.109" cy="19.219" fill="#FFB8B8" rx="11.131" ry="11.061" transform="rotate(10 44.11 19.22)"/>
            <path fill="#2F2E41" d="M67.99 80.746s-34.275 13.824-34.654 19.82c-.38 5.997-11.286 28.161-11.286 28.161s-3.94 13.57-2.103 13.826c1.838.257 6.805 2.674 7.651 0 .847-2.674 7.64-9.139 8.358-10.9.717-1.761 14.85-22.131 14.85-22.131S97.369 99.276 90.11 83.837c-7.258-15.44-22.12-3.09-22.12-3.09z"/>
            <path fill="#FFE500" d="M46.517 33.387l11.726-5.762s12.324.346 15.028 8.487c2.705 8.141 10.64 28.631 13.905 33.562 3.266 4.931 5.002 20.511 2.653 20.237-2.349-.274-12.983-9.523-18.981-7.585-5.999 1.939-13.91 2.92-13.778 1.024.131-1.895-19.187-44.407-14.182-47.678 3.337-2.18 4.546-2.942 3.629-2.285z"/>
            <path fill="#FFB8B8" d="M15.386 72.72S-.85 77.33.542 82.398c1.392 5.069 16.235-5.99 16.235-5.99l-1.391-3.686z"/>
            <path fill="#2F2E41" d="M40.116 3.637a2.206 2.206 0 0 1-1.024.304.68.68 0 0 1-.684-.672c-.3.52-.759.93-1.31 1.174-.57.179-1.34-.19-1.312-.785a2.49 2.49 0 0 1-.78 1.092.868.868 0 0 1-1.203-.17c.009 1.284-.36 2.538-.512 3.813-.152 1.275-.05 2.673.763 3.67 1.185 1.457 3.343 1.527 5.226 1.62.289-.009.575.058.83.193.637.413.437 1.36.314 2.107-.362 2.718 1.305 5.299 3.943 6.105.71.24 1.489.19 2.163-.14.6-.348.995-1.019 1.653-1.244 1.07-.368 2.113.624 2.674 1.601.562.977 1.078 2.148 2.155 2.497 1.423.463 2.797-.82 3.584-2.086a15.495 15.495 0 0 0 1.808-11.98C56.527 3.602 46.298.733 40.116 3.637z"/>
        </g>
        <g transform="translate(0 60.393)">
            <path d="M163.34 74.827c-2.801 2.983-4.862 4.156-4.765 1.01.294-9.518-16.78-52.55-16.78-52.55l5.05-.375c11.02 18.614 15.116 37.742 16.495 51.915z"/>
            <path fill="#65617D" fill-rule="nonzero" d="M186.388 95.866c0 12.68-10.042 23.108-22.777 23.653-12.735.544-23.64-8.989-24.733-21.621-.035-.385-.06-.77-.072-1.16v-.02a21.005 21.005 0 0 1-.017-.852c.017-13.063 10.667-23.643 23.8-23.643 13.131 0 23.782 10.58 23.799 23.643z"/>
            <ellipse cx="162.338" cy="95.633" fill="#DCE0ED" fill-rule="nonzero" rx="13.027" ry="12.95"/>
            <ellipse cx="162.588" cy="95.384" fill="#65617D" fill-rule="nonzero" rx="7.766" ry="7.72"/>
            <path fill="#65617D" fill-rule="nonzero" d="M99.206 50.66l-78.162 1.141v-8.362c.7-6.72 10.21-9.078 18.89-9.816a74.2 74.2 0 0 1 20.195 1.097c16.584 3.182 27.16 3.798 32.353 3.858 2.355.026 4.36 1.248 4.8 2.925.248.955.492 1.996.72 3.022a163.852 163.852 0 0 1 1.204 6.136z"/>
            <path fill="#005F5A" fill-rule="nonzero" d="M5.363 97.127c-2.17.02-4.143-1.085-5.013-2.806-1.036-2.143.413-3.51 1.958-4.312 3.163-1.623 5.56-4.163 6.769-7.17 1.465-3.735 2.898-9.615 3.46-18.78.58-9.48 4.544-14.167 8.828-16.437h.003c5.533-2.93 11.598-1.831 11.598-1.831l55.737.386c.992.39 9.441.512 10.253 1.141 4.966 4.003-9.807 9.626-9.807 9.626-17.732 9.253-3.777 28.647-3.777 28.647h28.52c5.328.023 10.539-1.358 14.939-3.96 3.854-2.304 5.346-4.537 5.922-5.886.44-1.033.886-2.063 1.42-3.06 7.48-14.049-1.543-36.902-5.437-45.447-.966-2.125-1.615-3.366-1.615-3.366l8.943-.585 5.656-.372.057-.003c12.464 18.614 17.098 37.74 18.656 51.913.147 1.335.267 2.63.363 3.873.359 4.778-1.585 9.471-5.369 12.963-3.784 3.492-9.07 5.471-14.6 5.466H5.363z"/>
            <path fill="#000" fill-rule="nonzero" d="M99.206 46.82H42.088v-2.49h56.758c.128.857.25 1.703.36 2.49z" opacity=".1"/>
            <path fill="#000" fill-rule="nonzero" d="M100.71 47.816H40.538a.996.996 0 0 1-.456-.108c4.788-3.433 10.037-2.146 10.037-2.146l48.234.453a9.275 9.275 0 0 1 2.355 1.801z" opacity=".1"/>
            <rect width="84.676" height="2.49" x="18.038" y="44.828" fill="#DCE0ED" fill-rule="nonzero" rx="1.245"/>
            <path fill="#000" fill-rule="nonzero" d="M163.34 74.827c-2.801 2.983-4.862 4.156-4.765 1.01.294-9.518-16.78-52.55-16.78-52.55l5.05-.375c11.02 18.614 15.116 37.742 16.495 51.915z" opacity=".1"/>
            <path fill="#000" fill-rule="nonzero" d="M186.388 93.462c-2.852.683-6.377 1.377-10.725 2.013-1.615.237-3.348.464-5.199.682-4.437.526-9.57.986-15.497 1.339a351.03 351.03 0 0 1-5.231.274c-3.387.154-7.012.271-10.875.353l-.072-1.168v-.02c5.398-2.177 13.89-7.986 15.26-23.116a23.917 23.917 0 0 1 21.005 1.878 23.863 23.863 0 0 1 11.334 17.765z" opacity=".1"/>
            <path fill="#005F5A" fill-rule="nonzero" d="M134.28 97.127s27.517-2.975 18.044-44.828c0 0 13.598 12.44 22.056 19.355 8.457 6.915 23.532 16.448 23.532 16.448s-9.003 8.397-63.633 9.025z"/>
            <path fill="#FFF" fill-rule="nonzero" d="M134.28 97.127s27.517-2.975 18.044-44.828c0 0 13.598 12.44 22.056 19.355 8.457 6.915 23.532 16.448 23.532 16.448s-9.003 8.397-63.633 9.025z" opacity=".1"/>
            <ellipse cx="46.847" cy="95.882" fill="#65617D" fill-rule="nonzero" rx="23.799" ry="23.659"/>
            <ellipse cx="46.597" cy="95.633" fill="#DCE0ED" fill-rule="nonzero" rx="13.027" ry="12.95"/>
            <ellipse cx="46.847" cy="95.384" fill="#65617D" fill-rule="nonzero" rx="7.766" ry="7.72"/>
            <path fill="#000" fill-rule="nonzero" d="M73.152 88.715c0-15.436-12.226-27.948-27.307-27.948-15.08 0-27.306 12.512-27.306 27.948 0 .651.023 1.297.066 1.937h54.48c.044-.64.067-1.286.067-1.937z" opacity=".1"/>
            <path fill="#005F5A" fill-rule="nonzero" d="M72.651 87.816c0-14.664-11.777-26.551-26.305-26.551-14.527 0-26.304 11.887-26.304 26.55 0 .62.022 1.233.064 1.84h52.481c.041-.607.064-1.22.064-1.84z"/>
            <path fill="#FFF" fill-rule="nonzero" d="M72.651 87.815c0 .426-.011.849-.032 1.269-.008.191-.02.38-.032.572H20.105c-.011-.192-.023-.38-.032-.572-.02-.42-.031-.843-.031-1.27 0-14.662 11.776-26.55 26.304-26.55 14.529 0 26.305 11.888 26.305 26.55z" opacity=".1"/>
            <path fill="#000" fill-rule="nonzero" d="M72.651 89.158c-.009.166-.02.33-.032.498H20.074c-.012-.167-.024-.332-.032-.498h52.61z" opacity=".1"/>
            <ellipse cx="154.489" cy="41.912" fill="#000" fill-rule="nonzero" opacity=".1" rx="3.471" ry="8.706" transform="rotate(-24.333 154.489 41.912)"/>
            <ellipse cx="154.779" cy="41.623" fill="#DCE0ED" fill-rule="nonzero" rx="3.471" ry="8.706" transform="rotate(-24.333 154.779 41.623)"/>
            <path fill="#000" fill-rule="nonzero" d="M146.805 23.41v4.483h-9.065c-.844 0-1.687-.064-2.52-.195-.862-2.108-1.442-3.338-1.442-3.338l7.98-.58 5.047-.37z" opacity=".1"/>
            <path fill="#005F5A" fill-rule="nonzero" d="M146.304 26.897h-8.898c-7.815 0-14.15-5.754-14.15-12.852v-1.193c0-7.098 6.335-12.852 14.15-12.852l8.898.795v26.102z"/>
            <path fill="#005F5A" fill-rule="nonzero" d="M132.004 7.76s5.434 2.82 2.308 7.59c0 0-3.833 6.11-9.862 5.531l-2.196-13.12s7.22-.651 9.75 0z"/>
            <path fill="#000" fill-rule="nonzero" d="M129.919 7.488a5.825 5.825 0 0 1 4.411 2.264c.968 1.303 1.545 3.203-.018 5.592 0 0-3.833 6.116-9.862 5.537l-2.196-13.137a69.067 69.067 0 0 1 7.665-.256zM146.304.498c1.86 0 3.645.75 4.96 2.084a7.166 7.166 0 0 1 2.055 5.03v12.17c0 3.93-3.14 7.115-7.015 7.115V.498z" opacity=".1"/>
            <path fill="#DCE0ED" fill-rule="nonzero" d="M146.805.498c3.874 0 7.015 3.185 7.015 7.114v12.17c0 3.93-3.14 7.115-7.015 7.115V.498z"/>
            <ellipse cx="122.004" cy="14.694" fill="#005F5A" fill-rule="nonzero" rx="5.762" ry="7.222"/>
            <path stroke="#000" d="M59.123 47.318l2.626 5.977 4.389-5.977"/>
            <path fill="#FFE500" fill-rule="nonzero" d="M51.106 53.295H72.15v20.422H51.106z"/>
            <path fill="#00373A" fill-rule="nonzero" d="M63.963 59.424l-4.326.674a.313.313 0 0 0-.236.241.137.137 0 0 0 .025.127c.029.036.074.055.12.051l1.484-.053-.21 1.212-2.293.526a.385.385 0 0 0-.276.224c-.064.158.019.283.163.271l4.465-.358-.193 1.107-5.638 1.409a.458.458 0 0 0-.33.35.2.2 0 0 0 .04.189.207.207 0 0 0 .184.07l5.474-.44-.184 1.058-6.835 1.682a.371.371 0 0 0-.266.223c-.055.155.035.27.179.248l7.317-1.14 1.173-.184c.447-.07.799-.412.875-.851l.86-4.934 2.258-.349.349-2.003-4.179.65z"/>
        </g>
        <g transform="matrix(-1 0 0 1 125.968 35.372)">
            <use fill="#FFE500" fill-rule="nonzero" xlink:href="#a"/>
            <mask id="c" fill="#fff">
                <use xlink:href="#b"/>
            </mask>
            <use fill="#FFE500" fill-rule="nonzero" xlink:href="#b"/>
            <path fill="#00373A" d="M2.457 34.251l6.43-.008-.016 11.4-6.43.009z" mask="url(#c)" transform="scale(-1 1) rotate(23 0 12.107)"/>
        </g>
        <path fill="#2F2E41" fill-rule="nonzero" d="M122.897 140.468s9.624 7.22 10.779 7.22c1.155 0 11.55 3.42 4.235 4.94-7.315 1.52-25.024.76-25.409-1.52-.385-2.28 1.155-9.2 1.155-9.2l9.24-1.44z"/>
        <path fill="#FFB8B8" fill-rule="nonzero" d="M124.779 72.176s10.207 3.25 10.487 7.192c.281 3.943-13.763.667-13.763.667l3.276-7.859z"/>
        <path fill="#FF6584" fill-rule="nonzero" d="M54.533 17.51H31.986v22.415h22.547z"/>
        <path fill="#000" fill-rule="nonzero" d="M54.533 17.51H31.986v22.415h22.547z" opacity=".1"/>
        <path fill="#FBBEBE" fill-rule="nonzero" d="M46.562 28.107s-3.196 8.543 0 10.12c3.195 1.578-11.45 0-11.45 0l-4.128-3.285s9.32-2.63 7.989-8.675c-1.332-6.046 7.589 1.84 7.589 1.84z"/>
        <path fill="#000" fill-rule="nonzero" d="M46.562 28.107s-3.196 8.543 0 10.12c3.195 1.578-11.45 0-11.45 0l-4.128-3.285s9.32-2.63 7.989-8.675c-1.332-6.046 7.589 1.84 7.589 1.84z" opacity=".1"/>
        <path fill="#005F5A" fill-rule="nonzero" d="M48.02 38.795s7.003-1.987 8.35 3.313c1.347 5.3 1.751 23.586 1.751 23.586l2.425 14.576s-4.445-1.325-5.388-.663l-5.657-7.023-1.481-33.789z"/>
        <g transform="matrix(-1 0 0 1 45.514 116.63)">
            <mask id="e" fill="#fff">
                <use xlink:href="#d"/>
            </mask>
            <use fill="#FBBEBE" fill-rule="nonzero" xlink:href="#d"/>
            <path fill="#2F2E41" d="M11.023 6.973h15.532v21.418H11.023c.46-.608 1.518-2.674 3.173-6.198 1.028-2.189-.03-7.262-3.173-15.22z" mask="url(#e)"/>
        </g>
        <path fill="#9493B6" fill-rule="nonzero" d="M26.387 75.787s-9.542 15.825-3.313 20.441c6.23 4.616 24.784 13.452 24.784 13.452s-9.94 6.726-10.47 8.968c-.53 2.241 4.77 8.308 6.626 8.44 1.856.132 7.29-6.067 13.121-7.65 5.831-1.582 9.41-12.923 3.048-17.143-6.361-4.22-12.325-11.21-12.325-11.21l1.854-10.153-23.325-5.145z"/>
        <path fill="#FBBEBE" fill-rule="nonzero" d="M34.993 22.65c0 5.64 5.754 10.301 11.372 10.301s10.172-4.571 10.172-10.21c0-5.64-4.554-10.211-10.172-10.211S34.993 17.01 34.993 22.65z"/>
        <path fill="#005F5A" fill-rule="nonzero" d="M43.755 37.523s-9.268-3.947-9.268-4.473c0-.527-5.372 1.184-6.581 2.236-1.209 1.053-1.88.921-2.686 3.026-.806 2.105 4.029 21.708 4.029 21.708s-2.686 15.13-4.164 16.578C23.608 78.045 37.04 80.15 37.04 80.15s8.865 1.579 10.342 2.236c1.478.658 4.164 1.58 3.627 0-.538-1.578-2.821-2.762 1.074-4.736 0 0-1.343-6.447 0-9.341 1.343-2.894 7.522-13.42 2.552-21.05-4.97-7.631-7.253-10.394-7.253-10.394s-1.746 1.447-3.626.658z"/>
        <path fill="#FBBEBE" fill-rule="nonzero" d="M40.684 73.795s10.355 4.495 13.475 4.91c3.12.417 12.546 2.756 7.368 4.835-5.177 2.079-13.01-1.04-13.01-1.04l-11.02-4.547 3.187-4.158z"/>
        <path fill="#000" fill-rule="nonzero" d="M29.265 36.68s-3.842-1.842-4.908 4.638c-1.067 6.48-4.801 26.979 0 30.02 4.8 3.042 15.869 7.936 15.869 7.936s6.534-4.365 3.467-5.952c-3.067-1.587-10.401-6.083-11.468-7.67-1.067-1.587-2.145-19.301-.278-22.21 1.867-2.91-2.682-6.762-2.682-6.762z" opacity=".1"/>
        <path fill="#005F5A" fill-rule="nonzero" d="M29.756 35.443s-5.335-.265-6.401 6.238c-1.067 6.503-4.801 27.075 0 30.127 4.8 3.053 15.869 7.964 15.869 7.964s6.534-4.38 3.467-5.973c-3.067-1.592-10.402-6.105-11.468-7.697-1.067-1.593.8-18.183 2.667-21.103 1.867-2.92-4.134-9.556-4.134-9.556z"/>
        <path fill="#FF6584" fill-rule="nonzero" d="M48.804 5.684c1.633.222 3.384.817 4.206 2.24.402.695.532 1.512.841 2.254.855 2.046 2.93 3.268 4.43 4.906 1.952 2.135 2.922 5.353 1.77 8.003-.446 1.027-1.17 1.906-1.72 2.882-1.532 2.721-1.614 5.99-1.657 9.11l-.086 6.134c-.013.937-.023 1.893.26 2.786.283.893.915 1.73 1.812 2.012a4.707 4.707 0 0 1-5.47-1.86 4.77 4.77 0 0 0 1.467 4.241c-2.438-.572-4.483-2.338-5.771-4.478-1.288-2.14-1.886-4.629-2.153-7.11-.142-1.312-.192-2.668.224-3.921.293-.883.805-1.674 1.29-2.468 1.251-2.046 2.378-4.223 2.781-6.585.404-2.362-.001-4.954-1.541-6.795a6.173 6.173 0 0 0-4.868-2.223 5.421 5.421 0 0 0-4.517 2.755c-.356.667-.863 1.57-1.584 1.337a3.918 3.918 0 0 1-.39-.191c-.804-.365-1.717.354-2.072 1.16-1.118 2.542.942 5.316 1.155 8.083.198 2.574-1.242 5.002-2.965 6.93a22.875 22.875 0 0 1-11.176 6.84 3.139 3.139 0 0 0 1.62-1.003 21.369 21.369 0 0 1-5.23-.437c1.872-1.404 3.756-2.821 5.319-4.56 1.562-1.74 2.8-3.845 3.136-6.154.453-3.1-.707-6.457.619-9.297 1.211-2.597 4.216-4.048 5.313-6.695 1.115-2.689 1.838-5.024 4.789-6.195 3.22-1.277 6.688-2.172 10.168-1.7z"/>
        <path fill="#2F2E41" d="M27.783 127.056l-3.154 1.53a1 1 0 0 0-.462 1.34l.218.443a1 1 0 0 0 1.334.46l3.154-1.53a1 1 0 0 0 .461-1.34l-.217-.443a1 1 0 0 0-1.334-.46z"/>
        <g fill-rule="nonzero">
            <path fill="#FFE500" d="M114.71 14.059c-.517-3.159-1.705-5.96-3.531-8.326-1.127-1.459-3.292-2.905-5.943-3.968C102.4.627 99.206 0 96.238 0c-3.274 0-6.195.719-8.683 2.137-2.894 1.648-5.084 4.192-6.511 7.559-2.532 5.975.314 12.333.646 13.039a.798.798 0 0 0 .362.368l24.352 12.37a.846.846 0 0 0 .82-.027c2.494-1.484 4.814-4.896 6.257-9.008l.014-.039a27.403 27.403 0 0 0 .987-3.61c.596-2.971.676-5.991.227-8.731z"/>
            <path fill="#FFE500" d="M106.739 33.876L83.075 21.854a18.191 18.191 0 0 1-1.206-4.145c-.46-2.757-.227-5.256.693-7.427 1.29-3.045 3.252-5.334 5.832-6.804 2.23-1.272 4.87-1.916 7.844-1.916 2.754 0 5.724.583 8.364 1.642 2.385.957 4.302 2.216 5.257 3.455 1.238 1.603 2.157 3.431 2.742 5.455-1.17-.157-3.107-.438-5.337-.842-4.776-.864-8.718-1.895-11.402-2.982l-.033-.012c-.48-.2-1.01-.312-1.566-.312-2.16 0-3.92 1.675-3.925 3.735v.008c-.001.218.001 4.597 1.162 6.87.411.803 2.052 2.045 11.109 5.16a285.134 285.134 0 0 0 9.05 2.927c-1.24 3.212-3.037 5.895-4.92 7.21z"/>
            <path fill="#8CD0F3" d="M113.233 14.299c.42 2.566.344 5.4-.218 8.198a25.678 25.678 0 0 1-.695 2.689c-1.55-.473-5.187-1.6-8.888-2.871-2.848-.978-5.172-1.847-6.907-2.583-2.946-1.25-3.37-1.776-3.415-1.843-.397-.781-.792-1.85-.936-2.936.602.359 1.47.5 2.23.5 2.165 0 3.927-1.68 3.927-3.743 0-.342-.05-.673-.14-.988 5.73 1.772 12.85 2.755 14.942 3.02.036.185.07.37.1.557z"/>
            <path fill="#00373A" d="M96.552 11.71c0 1.202-1.026 2.181-2.289 2.181-1.261 0-2.288-.979-2.288-2.182 0-1.202 1.027-2.181 2.288-2.181 1.263 0 2.29.979 2.29 2.181z"/>
            <path fill="#FFF" d="M93.685 12.261a.846.846 0 0 0 1.157 0 .754.754 0 0 0 0-1.104.847.847 0 0 0-1.157 0c-.32.305-.32.8 0 1.104z"/>
            <path fill="#000" d="M110.399 23.735c.091.03.184.044.275.044a.816.816 0 0 0 .77-.519c1.297-3.478.842-8.278.821-8.48-.042-.43-.441-.744-.89-.704-.452.04-.782.42-.74.85.005.046.44 4.662-.732 7.812-.153.406.07.853.496.997z"/>
        </g>
        <path fill="#00373A" d="M107.023 67.6L93.376 37.251l-10.321-3.105 20.397 38.758z"/>
        <path fill="#00373A" d="M118.217 72.574L106.97 67.43l-3.518 5.475 13.1 3.772zM99.315 36.59L85.67 29.517a2.86 2.86 0 0 0-3.85 1.214 2.838 2.838 0 0 0 1.21 3.836l13.644 7.07a2.86 2.86 0 0 0 3.85-1.213 2.838 2.838 0 0 0-1.21-3.836zM103.28 33.17l-16.49-8.547a1.43 1.43 0 0 0-1.926.607 1.42 1.42 0 0 0 .605 1.918l16.491 8.546c.7.362 1.56.091 1.925-.607a1.42 1.42 0 0 0-.604-1.918z"/>
    </g>
</svg>
