<svg xmlns="http://www.w3.org/2000/svg" xmlns:xlink="http://www.w3.org/1999/xlink" width="470" height="187" viewBox="0 0 470 187">
    <defs>
        <path id="a" d="M3.422 0H8.09s4.044 3.313 3.733 9.639L14 27.409s0 8.736-3.733 15.06L6.222 50S4.667 45.783 0 46.386l2.489-6.326v-1.506s.933-1.205.933-1.506c0-.301-1.244-.301-.31-.903.932-.603 1.866-6.627 1.866-6.627s-.311-1.205-.622-1.506c-.312-.301.31-1.205.31-1.205l-.622-.903L0 11.144 3.422 0z"/>
        <path id="c" d="M29 .954l-6 2.07s-2.76 1.797-3.969 5.41l-2.416 10.842-3.928 7.83s-4.53 4.516-7.854 14.755L0 50.895l5.135 3.011s14.198-16.562 16.01-22.284L29 16.565V.954z"/>
        <path id="e" d="M27.373 2.753c-.902 0-3.703 1.929-8.855.883-2.547-.801-3.694-.377-3.753-3.136L0 5.85l2.68 22.526-2.382 26.23L2.084 58h26.198s.894-4.629 1.191-4.629c.298 0 .893-.925.596-1.234-.298-.309-.893-.617-.596-1.543.298-.926.596-11.109.596-11.109L39 12.64 27.373 2.753z"/>
    </defs>
    <g fill="none" fill-rule="evenodd">
        <g transform="matrix(-1 0 0 1 470 37)">
            <path fill="#8CD0F3" fill-rule="nonzero" d="M123.205 46.848S192.089 2.635 239.712 2.635c0 0 57.334-8.971 119.697 6.192 62.363 15.162 85.399 34.822 102.69 29.05l-72.64 2.137-266.254 6.834z"/>
            <path fill="#8CD0F3" fill-rule="nonzero" d="M123.205 48.807S192.089 4.594 239.712 4.594c0 0 57.334-8.97 119.697 6.192s85.399 34.822 102.69 29.05l-72.64 2.137-266.254 6.834z" opacity=".1"/>
            <path fill="#2F2E41" fill-rule="nonzero" d="M447.887 112.557H27.776l11.55-46.491 71.44-19.082 337.12 8.9z"/>
            <path fill="#1E5AEC" fill-rule="nonzero" d="M470 86.446v14.838s-12.473 9.089-13.606 16.207c0 0-17.86 4.556-22.96 4.556-.464 0-.97 0-1.498.053a42.754 42.754 0 0 0 1.862-6.604c3.422-17.258-3.843-34.886-18.406-44.664a43.133 43.133 0 0 0-48.117 0c-14.563 9.778-21.827 27.406-18.406 44.664a43.568 43.568 0 0 0 2.756 8.853h-24.217s-.223.077-.588.236c-1.298.59-4.359 2.149-4.8 4.598H121.326l-4.113-.035c.874-1.474 1.659-3 2.35-4.569a42.288 42.288 0 0 0 2.855-9.071c3.259-16.266-2.969-32.977-16.058-43.094a43.17 43.17 0 0 0-45.58-4.546c-14.813 7.334-24.19 22.49-24.178 39.082 0 2.867.28 5.727.834 8.54a43.52 43.52 0 0 0 5.135 13.516c-2.867-.702-9.124-2.697-9.124-2.697S6.803 123.464 0 117.455l1.028-.714 4.36-2.992-1.986-7.673a4.728 4.728 0 0 1-.588-1.05c-.529-1.281-.993-3.66.875-6.646 2.832-4.557 1.416-20.788 1.416-20.788s38.552-26.766 114.522-32.75c0 0 1.815 1.416 5.563 1.711 2.538.207 5.964-.106 10.317-1.712 0 0 6.233 2.845 32.9-12.53 0 0 45.36-31.328 104.892-28.472 0 0 61.23-3.706 113.388 16.526 22.477 8.712 39.58 13.357 51.77 15.812 11.257 2.272 18.324 2.691 21.561 2.727h2.074s0 6.781.359 14.79v.042c.129 2.786.305 5.72.552 8.57v.177c.681 7.938 1.856 15.15 3.895 16.579L470 86.446z"/>
            <path fill="#8CD0F3" fill-rule="nonzero" d="M11.233 74.004s17.079-13.386 38.34-10.535c0 0-19.346 15.381-28.065 14.384l-1.486-1.281-8.812.496s-1.317-2.066.023-3.064z"/>
            <path fill="#FFF" fill-rule="nonzero" d="M27.812 97.164v7.903s-.587 7.55-7.373 7.832l-19.387.963 4.353-2.993-1.986-7.673a4.568 4.568 0 0 1-.587-1.044c1.762-1.63 5.916-4.38 14.364-4.97l10.616-.018zM118.029 64.042l14.881-.59s-6.022 4.768-10.275 5.2c-4.254.43-4.606-4.61-4.606-4.61zM149.354 109.394s134.579-18.799 167.109-12.82c0 0 9.564.643 13.183 4.486 3.62 3.842 0 1.351 0 1.351l-180.292 6.983z" opacity=".2"/>
            <path fill="#18218A" fill-rule="nonzero" d="M224.69 56.634s1.703-3.205 4.464-3.275l17.93-.927s-.281 2.49-3.471 3.417l-18.924.785zM328.442 51.222s1.704-3.205 4.465-3.276l17.93-.95s-.282 2.49-3.472 3.417l-18.923.81z" opacity=".5"/>
            <path fill="#8CD0F3" fill-rule="nonzero" d="M267.219 7.31l-13.76 36.251-49.608.053h-44.368s6.627-4.887 17.302-11.114a236.648 236.648 0 0 1 11.867-6.492 224.164 224.164 0 0 1 12.814-6.103 189.588 189.588 0 0 1 11.033-4.456c17.208-6.321 36.548-10.565 54.72-8.139zM345.168 33.781s-20.727 3.087-40.508 5.371c-7.561.874-14.981 1.63-21.056 2.048l-.846.06c-2.35.153-4.53.253-6.38.288-2.938.054-5.135-.076-6.234-.43l5.717-34.675s7.05.076 17.478.59l2.28.124c2.167.124 4.452.265 6.838.43 3.407.237 6.997.52 10.698.862 17.872 1.647 38.117 4.604 50.936 9.928C391.37 29.72 345.168 33.78 345.168 33.78zM440.695 51.222v9.255s-14.88.212-11.69-2.774a45.747 45.747 0 0 0 5.598-6.493l6.092.012z"/>
            <path fill="#F44E4E" fill-rule="nonzero" d="M462.991 59.532l-12.085.95V49.358s5.6-7.903 11.198.856l.323.513.564 8.806z"/>
            <ellipse cx="79.941" cy="108.909" fill="#65617D" fill-rule="nonzero" rx="34.586" ry="34.746"/>
            <path fill="#FFF" fill-rule="nonzero" d="M107.683 108.88c.026 14.89-11.567 27.188-26.367 27.974-14.801.785-27.62-10.218-29.155-25.028-1.535-14.81 8.75-28.232 23.394-30.527 14.644-2.296 28.511 7.338 31.54 21.914.387 1.864.584 3.762.588 5.666z"/>
            <ellipse cx="79.9" cy="108.873" fill="#65617D" fill-rule="nonzero" opacity=".5" rx="23.847" ry="24.016"/>
            <path fill="#FFF" fill-rule="nonzero" d="M87.878 82.066v1.015l-7.937 26.4-6.368-27.852a27.777 27.777 0 0 1 14.305.437zM87.82 135.705a27.782 27.782 0 0 1-13.989.484l6.104-26.708 7.885 26.224zM107.683 108.88a28.142 28.142 0 0 1-1.328 8.581h-.112l-26.278-7.974 27.177-6.268c.37 1.864.551 3.76.54 5.66z"/>
            <path fill="#FFF" fill-rule="nonzero" d="M79.941 109.481l-26.279 7.974h-.205a28.385 28.385 0 0 1-.758-14.26l27.242 6.286z"/>
            <ellipse cx="79.9" cy="108.873" fill="#182A7C" fill-rule="nonzero" rx="3.049" ry="3.063"/>
            <ellipse cx="391.122" cy="108.909" fill="#65617D" fill-rule="nonzero" rx="34.586" ry="34.746"/>
            <path fill="#FFF" fill-rule="nonzero" d="M418.87 108.88c.026 14.89-11.567 27.188-26.367 27.974-14.801.785-27.62-10.218-29.155-25.028-1.535-14.81 8.75-28.232 23.394-30.527 14.644-2.296 28.511 7.338 31.54 21.914.387 1.864.584 3.762.588 5.666z"/>
            <ellipse cx="391.087" cy="108.873" fill="#65617D" fill-rule="nonzero" opacity=".5" rx="23.847" ry="24.016"/>
            <path fill="#FFF" fill-rule="nonzero" d="M399.06 82.066v1.015l-7.938 26.4-6.368-27.852a27.777 27.777 0 0 1 14.305.437zM399.007 135.705a27.782 27.782 0 0 1-13.989.484l6.104-26.708 7.885 26.224zM418.87 108.88a28.143 28.143 0 0 1-1.328 8.581h-.135l-26.285-7.98 27.178-6.268c.38 1.865.57 3.763.57 5.666z"/>
            <path fill="#FFF" fill-rule="nonzero" d="M391.122 109.481l-26.279 7.974h-.205a28.385 28.385 0 0 1-.758-14.26l27.242 6.286z"/>
            <ellipse cx="391.087" cy="108.873" fill="#182A7C" fill-rule="nonzero" rx="3.049" ry="3.063"/>
            <path fill="#FFF" fill-rule="nonzero" d="M188.658 26.044l-8.69 17.594h-9.605l6.422-11.102a250.26 250.26 0 0 1 11.873-6.492zM212.499 15.485l-8.654 28.135h-12.772L201.47 19.93a218.206 218.206 0 0 1 11.028-4.444zM302.469 7.617l-18.853 33.59-.846.058c-2.35.154-4.53.254-6.38.29l16.96-34.487 2.28.124c2.139.118 4.442.26 6.839.425z" opacity=".2"/>
            <path stroke="#FFF" d="M159.812 43.52l-10.763 74.479 89.893-1.977L253.7 43.844z" opacity=".2"/>
            <path fill="#18218A" fill-rule="nonzero" d="M326.826 121.623c-1.298.59-4.359 2.148-4.8 4.598H121.325l-4.113-.036c.874-1.474 1.659-3 2.35-4.568l207.264.006z" opacity=".5"/>
        </g>
        <g transform="translate(244)">
            <path fill="#525161" fill-rule="nonzero" d="M51 160.314l-1.077 14.431L45.077 176 44 172.235s1.885-10.353 1.885-12.235l5.115.314zM35.075 151s2.038 6.4 2.802 7.04c.765.64-2.292 8.96-2.292 8.96L31 166.04s1.528-6.72.255-10.56l3.82-4.48z"/>
            <path fill="#2F2E41" fill-rule="nonzero" d="M38.036 155s2.202.743 3.083 4.01c.881 3.267.881 3.564.881 3.564l-1.468 3.268h-.881s-1.468 5.05-1.175 6.832c.294 1.782-2.055 8.614-6.167 8.317-4.11-.297-3.23-5.347-3.23-5.347l2.056-10.396s0-2.674.587-2.674 5.286.892 5.286.892v.89s3.377-4.603 1.028-9.356zM45.49 173.46v-1.805s6.284.903 6.284 1.805v2.107S57.16 187 51.175 187c-5.985 0-7.182-2.407-7.182-2.407v-3.31S41 179.78 41 178.876c0-.902 2.92-8.876 2.92-8.876s.073 4.664 1.57 3.46z"/>
            <circle cx="53" cy="13" r="10" fill="#FFB8B8" fill-rule="nonzero"/>
            <path fill="#FFB8B8" fill-rule="nonzero" d="M57 22.095s-1.217 5.881-1.217 6.5C55.783 29.215 50 32 50 32l-5.174-.929L43 25.5s3.043-4.643 3.043-6.5L57 22.095z"/>
            <path fill="#00373A" fill-rule="nonzero" d="M56.48 24c.81 0-.697 3.976-.697 4.595C55.783 29.215 50 32 50 32l-5.174-.929L43 25.5s.685-1.5 1.826-3.405L56.48 24z"/>
            <path fill="#FFB8B8" fill-rule="nonzero" d="M68 83.727L62.96 91s-.84-7.576-1.96-7.879L63.8 81l4.2 2.727zM7.079 77S-.808 81.47.068 84.363C.944 87.256 10 79.367 10 79.103 10 78.842 7.079 77 7.079 77z"/>
            <path fill="#2F2E41" fill-rule="nonzero" d="M58.347 76.905h.61l.917 4.225s4.884 4.224 2.442 10.863l-4.885 31.684L51 171.706h-1.857L44 170l-.307-58.393s-2.137-4.526-1.22-6.035c.915-1.509-.306-1.207-.306-1.207l-6.411 17.502s2.137 5.733 0 7.544c0 0 .305.905 0 1.207-.306.301-1.832 1.508-1.221 2.112.61.603.915 0 .915.905S38.221 149.344 37 159l-3.505 3.469L31 160.957l-8.066-24.003s1.526-2.715 0-3.319c-1.527-.603-1.832-1.207-1.222-2.112.61-.905.61-3.923-.305-5.432-.916-1.509 0-3.923 0-3.923l3.358-30.477S23.24 83.544 28.43 79.32L29.345 76s7.632 5.432 29.002.905zM61.702 5.382S58.6-1.314 52.654.232C46.708 1.776 43 2.14 43 2.14s.864 5.302 5 6.332c4.137 1.03 10.6.257 10.6.257L59.634 18s1.163-1.674 2.456-.644c1.292 1.03 3.748-9.914-.388-11.974z"/>
            <g transform="translate(60 36)">
                <mask id="b" fill="#fff">
                    <use xlink:href="#a"/>
                </mask>
                <use fill="#FFE500" fill-rule="nonzero" xlink:href="#a"/>
                <path fill="#00373A" d="M8-1h9v31H8z" mask="url(#b)" transform="rotate(-10 12.5 14.5)"/>
                <path fill="#00373A" d="M8 24h9v31H8z" mask="url(#b)" transform="rotate(18 12.5 39.5)"/>
            </g>
            <g transform="translate(6 26.094)">
                <mask id="d" fill="#fff">
                    <use xlink:href="#c"/>
                </mask>
                <use fill="#FFE500" fill-rule="nonzero" xlink:href="#c"/>
                <path fill="#00373A" d="M5.423-1h10v54h-10z" mask="url(#d)" transform="rotate(27 10.423 26)"/>
            </g>
            <g transform="translate(29 23)">
                <mask id="f" fill="#fff">
                    <use xlink:href="#e"/>
                </mask>
                <use fill="#FFE500" fill-rule="nonzero" xlink:href="#e"/>
                <path stroke="#FBB914" stroke-linecap="square" d="M19.5 4.5l-5 52" mask="url(#f)"/>
            </g>
            <g fill="#00373A" fill-rule="nonzero">
                <path d="M52.79 37.756c.493-1.287 1.664-2.17 3.007-2.27 1.344-.099 2.62.604 3.277 1.806l.504-.038a3.929 3.929 0 0 0-3.192-2.235c-1.858-.163-3.536 1.029-4.099 2.773l.503-.036zM59.288 40.251c-.492 1.287-1.663 2.17-3.007 2.27a3.449 3.449 0 0 1-3.278-1.806l-.502.038a3.927 3.927 0 0 0 3.19 2.235c1.86.163 3.537-1.03 4.1-2.773l-.503.036zM52.001 38.478l-.973.07a.07.07 0 0 0-.057.05.032.032 0 0 0 .003.029.031.031 0 0 0 .025.014l.33.016-.07.272-.52.075a.086.086 0 0 0-.065.045c-.017.035-.001.065.03.065l.999.005-.065.248-1.28.211a.104.104 0 0 0-.08.073.047.047 0 0 0 .006.044c.009.013.024.02.04.02l1.223.006-.062.237-1.55.25a.083.083 0 0 0-.064.045c-.015.035.002.062.035.06l1.646-.117.264-.019a.236.236 0 0 0 .211-.177l.29-1.105.507-.035.118-.449-.94.067zM56.675 38.646l-.024.094.836-.06-.106.404-.835.06-.06.238.878-.064-.109.417-1.08.08c-.19.013-.302-.132-.252-.324l.263-1.015a.523.523 0 0 1 .433-.373l1.08-.079-.108.418-.735.053a.2.2 0 0 0-.18.151zM59.886 37.918l-.673 1.007-.159-.949-.17.012-.491.035-.45 1.71.493-.036.252-.96.125.737c.013.092.092.16.184.16.12.004.255-.074.333-.19l.528-.788-.252.96.492-.035.449-1.709-.661.046zM55.438 38.927l.834-.787-.705.05-.26.246a1.444 1.444 0 0 0-.293.387l.009-.031.15-.574-.569.04-.412 1.567a.026.026 0 0 1-.051-.003l-.185-1.253c-.024-.16-.155-.255-.332-.242a.653.653 0 0 0-.47.294l-.99 1.489.58-.04.152-.249.64-.045.022.236.603-.042.561-.04.15-.57.017-.065a.67.67 0 0 0 .079.33l.153.277.7-.049-.443-.699c-.039-.062-.013-.158.06-.227zm-2.338.517l.384-.65.046.62-.43.03zM61.114 38.313l-.024.094.836-.061-.105.405-.836.06-.062.236.879-.063-.109.417-1.08.079c-.19.013-.302-.131-.252-.323l.264-1.015a.523.523 0 0 1 .432-.373l1.08-.08-.108.418-.736.055a.2.2 0 0 0-.179.15z"/>
            </g>
        </g>
    </g>
</svg>
