<svg xmlns="http://www.w3.org/2000/svg" width="91" height="60" viewBox="0 0 91 60">
    <g fill="#00373A" fill-rule="nonzero">
        <path d="M20.724 22.411c2.834-9.764 10.988-17.005 20.941-18.597 9.954-1.592 19.925 2.75 25.609 11.153L71 14.366C65.648 5.452 56.075.006 45.75 0 31.79 0 20.06 9.832 17 23l3.724-.589zM70.276 37.589c-2.833 9.764-10.987 17.005-20.942 18.597-9.954 1.592-19.926-2.751-25.61-11.153l-3.724.6C25.35 54.549 34.923 59.997 45.248 60 59.21 60 70.94 50.167 74 37l-3.724.589zM14.944 27.167l-7.306 1.211a.548.548 0 0 0-.4.433.258.258 0 0 0 .043.228c.049.064.125.099.203.092l2.506-.096-.355 2.178-3.873.945a.661.661 0 0 0-.465.402c-.108.284.032.508.275.487l7.54-.644-.325 1.989-9.521 2.53a.804.804 0 0 0-.558.628.377.377 0 0 0 .068.341.34.34 0 0 0 .31.126l9.245-.79-.311 1.9L.477 42.149a.638.638 0 0 0-.449.402c-.094.278.058.485.302.445l12.357-2.05 1.981-.328c.755-.126 1.349-.74 1.478-1.53l1.452-8.862 3.813-.627L22 26l-7.056 1.167zM50.96 27.167l-.116.697 6.029-.965-.507 3.002-6.03.965-.285 1.767 6.333-1.024-.522 3.1-7.794 1.26c-1.36.22-2.27-.76-2.03-2.186l1.268-7.54c.24-1.428 1.54-2.763 2.9-2.983L58 22l-.522 3.1-5.297.857c-.62.092-1.112.58-1.22 1.21zM74.885 19.795l-4.553 8.171-1.884-7.166-1.308.204-3.809.598L61 35l3.809-.596 1.31-7.526 1.473 5.563c.164.693.822 1.16 1.541 1.094.943-.044 1.94-.73 2.466-1.672l3.571-6.397-1.31 7.526 3.81-.594L80 19l-5.115.795z"/>
        <path d="M42.17 29.642L48 23l-5.338.859-1.82 2.081a11.23 11.23 0 0 0-1.97 3.183l.042-.245.766-4.538-4.312.692-2.094 12.395a.203.203 0 0 1-.192.166.203.203 0 0 1-.202-.154l-2.248-9.56c-.287-1.214-1.349-1.867-2.69-1.643-1.341.224-2.658 1.233-3.388 2.589L18 41l4.4-.707.989-2.02 4.854-.78.324 1.806 4.568-.734 4.247-.684.76-4.508.088-.511c.059.887.34 1.744.82 2.488l1.354 2.044 5.302-.852-3.843-5.1c-.336-.456-.202-1.216.307-1.8zm-17.473 5.576l2.495-5.286.762 4.763-3.257.523zM83.97 22.175l-.117.697 6.029-.974-.507 3.01-6.03.965-.294 1.76 6.333-1.023-.522 3.1-7.792 1.26c-1.362.22-2.27-.76-2.032-2.187l1.27-7.542c.24-1.427 1.537-2.763 2.9-2.983L91 17l-.522 3.1-5.309.87a1.46 1.46 0 0 0-1.199 1.205z"/>
    </g>
</svg>
