<?xml version="1.0" encoding="UTF-8"?>
<svg width="22px" height="23px" viewBox="0 0 22 23" version="1.1" xmlns="http://www.w3.org/2000/svg" xmlns:xlink="http://www.w3.org/1999/xlink">
    <!-- Generator: Sketch 58 (84663) - https://sketch.com -->
    <title>Mask</title>
    <desc>Created with Sketch.</desc>
    <defs>
        <path d="M9.79603802,0 L9.79603802,0.00337567386 L11.9276029,0.00374885436 C14.6708977,0.00625686425 15.1398578,0.022381421 16.4220444,0.0810161728 C17.7303605,0.14121569 18.4404296,0.361197104 18.9134362,0.546015248 C19.5396388,0.790751603 19.9860877,1.08331 20.4554601,1.55590435 C20.925112,2.02849869 21.215849,2.47858854 21.4596207,3.10871432 C21.6432882,3.58412173 21.8621795,4.29863936 21.9217247,5.61515217 C21.9820037,6.94959824 21.9980562,7.40880856 21.9998273,10.4302159 L21.9998273,11.7091411 C21.9980562,14.7305485 21.9820037,15.1897588 21.9217247,16.5242049 C21.8619,17.8407177 21.6432882,18.5552353 21.4596207,19.0306427 C21.2164081,19.6607685 20.925112,20.1094518 20.4554601,20.5817649 C19.9858081,21.0543592 19.5399183,21.3469176 18.9134362,21.591654 C18.4409887,21.777316 17.7303605,21.9967348 16.4220444,22.0569343 C15.1401112,22.1155691 14.6709452,22.1326178 11.9276095,22.1352991 L10.0719273,22.1352991 C7.32842666,22.1326178 6.85949024,22.1155691 5.57755706,22.0569343 C4.26924089,21.9961722 3.55917186,21.7761908 3.0858857,21.5913727 C2.45968309,21.3466363 2.01239551,21.0540779 1.54274356,20.5814836 C1.0730916,20.1088892 0.782354676,19.6599246 0.538582946,19.0295175 C0.354915485,18.5541101 0.136024127,17.8395925 0.0764789684,16.5230796 C0.0222278775,15.3220782 0.00459627298,14.8300177 0.000410886083,12.5396578 L0.000410886083,9.59309552 C0.00459627298,7.30323634 0.0222278775,6.81277796 0.0764789684,5.61177649 C0.136303682,4.29526369 0.354915485,3.58074605 0.538582946,3.10477604 C0.781795566,2.47465025 1.0730916,2.0245604 1.54274356,1.55196606 C2.01239551,1.07937172 2.45968309,0.786813317 3.0858857,0.541514349 C3.55889231,0.355852287 4.26924089,0.136433485 5.57755706,0.075952662 C6.81542543,0.0196914309 7.29514135,0.00281306155 9.79603802,0 Z M10.9986927,4.138 C7.19422209,4.13857616 4.10877647,7.2433522 4.10877647,11.0727729 C4.10877647,14.9021936 7.19422209,18.0055631 10.9998007,18.0055631 C14.8053793,18.0055631 17.8897067,14.9021936 17.8897067,11.0727729 C17.8897067,7.32313179 14.9322863,4.26825634 11.2364097,4.14259731 L10.9986927,4.138 Z M10.9998007,6.5718744 C13.4699464,6.5718744 15.4726765,8.58687039 15.4726765,11.0727729 C15.4726765,13.5583941 13.4699464,15.5736714 10.9998007,15.5736714 C8.52937551,15.5736714 6.52692494,13.5583941 6.52692494,11.0727729 C6.52692494,8.58687039 8.52937551,6.5718744 10.9998007,6.5718744 Z M18.1625521,2.24482312 L18.1625521,2.24538573 C17.2735681,2.24538573 16.5523169,2.97031169 16.5523169,3.86514658 C16.5523169,4.75970015 17.2735681,5.48547003 18.1625521,5.48547003 C19.0515362,5.48547003 19.7727874,4.75970015 19.7727874,3.86514658 C19.7727874,2.970593 19.0515362,2.24482312 18.1625521,2.24482312 Z" id="path-1"></path>
    </defs>
    <g id="Page-1" stroke="none" stroke-width="1" fill="none" fill-rule="evenodd">
        <g id="TakeMe_Home" transform="translate(-669.000000, -4259.000000)">
            <g id="Footer" transform="translate(0.000000, 4103.000000)">
                <g id="Site-Map" transform="translate(189.000000, 41.000000)">
                    <g id="Social" transform="translate(377.000000, 115.000000)">
                        <g id="instagram" transform="translate(103.000000, 0.000000)">
                            <mask id="mask-2" fill="white">
                                <use xlink:href="#path-1"></use>
                            </mask>
                            <use id="Mask" fill="#FFFFFF" xlink:href="#path-1"></use>
                        </g>
                    </g>
                </g>
            </g>
        </g>
    </g>
</svg>