<?xml version="1.0" encoding="UTF-8"?>
<svg width="22px" height="22px" viewBox="0 0 22 22" version="1.1" xmlns="http://www.w3.org/2000/svg" xmlns:xlink="http://www.w3.org/1999/xlink">
    <!-- Generator: Sketch 58 (84663) - https://sketch.com -->
    <title>LINE_V2</title>
    <desc>Created with Sketch.</desc>
    <g id="Page-1" stroke="none" stroke-width="1" fill="none" fill-rule="evenodd">
        <g id="ForeToday_Home" transform="translate(-848.000000, -4132.000000)" fill="#FFFFFF" fill-rule="nonzero">
            <g id="Footer" transform="translate(0.000000, 3979.000000)">
                <g id="Site-Map" transform="translate(236.000000, 30.000000)">
                    <g id="Group-8" transform="translate(525.000000, 123.000000)">
                        <g id="LINE_V2" transform="translate(87.000000, 0.000000)">
                            <path d="M13.3620492,8.45625467 L13.3620492,11.9477661 C13.3620492,12.0361588 13.2932994,12.1049087 13.2049067,12.1049087 L12.6450863,12.1049087 C12.5910685,12.1049087 12.5419615,12.0754445 12.5174079,12.0410695 L10.916518,9.8803592 L10.916518,11.9526768 C10.916518,12.0410695 10.8477681,12.1098194 10.7593754,12.1098194 L10.199555,12.1098194 C10.1111623,12.1098194 10.0424125,12.0410695 10.0424125,11.9526768 L10.0424125,8.46116538 C10.0424125,8.37277268 10.1111623,8.30402281 10.199555,8.30402281 L10.7544647,8.30402281 C10.8035718,8.30402281 10.8575895,8.32857633 10.8821431,8.37277268 L12.483033,10.533483 L12.483033,8.46116538 C12.483033,8.37277268 12.5517829,8.30402281 12.6401756,8.30402281 L13.199996,8.30402281 C13.2883887,8.2991121 13.3620492,8.37277268 13.3620492,8.45625467 L13.3620492,8.45625467 Z M9.33527091,8.2991121 L8.77545051,8.2991121 C8.68705782,8.2991121 8.61830795,8.36786198 8.61830795,8.45625467 L8.61830795,11.9477661 C8.61830795,12.0361588 8.68705782,12.1049087 8.77545051,12.1049087 L9.33527091,12.1049087 C9.42366361,12.1049087 9.49241348,12.0361588 9.49241348,11.9477661 L9.49241348,8.45625467 C9.49241348,8.37277268 9.42366361,8.2991121 9.33527091,8.2991121 L9.33527091,8.2991121 Z M7.98482697,11.2258924 L6.45759763,11.2258924 L6.45759763,8.45625467 C6.45759763,8.36786198 6.38884775,8.2991121 6.30045506,8.2991121 L5.74063466,8.2991121 C5.65224196,8.2991121 5.58349209,8.36786198 5.58349209,8.45625467 L5.58349209,11.9477661 C5.58349209,11.9919625 5.59822421,12.0263374 5.62768844,12.0558016 C5.65715267,12.0803552 5.69152761,12.099998 5.73572395,12.099998 L7.97991626,12.099998 C8.06830896,12.099998 8.13705883,12.0312481 8.13705883,11.9428554 L8.13705883,11.383035 C8.13705883,11.299553 8.06830896,11.2258924 7.98482697,11.2258924 Z M16.3084724,8.2991121 L14.0642801,8.2991121 C13.9807981,8.2991121 13.9071375,8.36786198 13.9071375,8.45625467 L13.9071375,11.9477661 C13.9071375,12.0312481 13.9758874,12.1049087 14.0642801,12.1049087 L16.3084724,12.1049087 C16.3968651,12.1049087 16.465615,12.0361588 16.465615,11.9477661 L16.465615,11.3879457 C16.465615,11.299553 16.3968651,11.2308031 16.3084724,11.2308031 L14.7812431,11.2308031 L14.7812431,10.6415185 L16.3084724,10.6415185 C16.3968651,10.6415185 16.465615,10.5727686 16.465615,10.4843759 L16.465615,9.91964484 C16.465615,9.83125215 16.3968651,9.76250227 16.3084724,9.76250227 L14.7812431,9.76250227 L14.7812431,9.17321764 L16.3084724,9.17321764 C16.3968651,9.17321764 16.465615,9.10446777 16.465615,9.01607507 L16.465615,8.45625467 C16.4607043,8.37277268 16.3919544,8.2991121 16.3084724,8.2991121 L16.3084724,8.2991121 Z M21.9999899,4.01206641 L21.9999899,18.0223085 C21.9950691,20.2223045 20.1928403,22.0048905 17.9879336,21.9999899 L3.97769147,21.9999899 C1.77769551,21.9950691 -0.00489050337,20.1879296 1.00801328e-05,17.9879336 L1.00801328e-05,3.97769147 C0.00493090717,1.77769551 1.81207045,-0.00489050337 4.01206641,1.00801328e-05 L18.0223085,1.00801328e-05 C20.2223045,0.00493090717 22.0048905,1.80715974 21.9999899,4.01206641 Z M18.9749854,10.0325911 C18.9749854,6.44777622 15.3803491,3.53081729 10.9656251,3.53081729 C6.55090103,3.53081729 2.95626477,6.44777622 2.95626477,10.0325911 C2.95626477,13.2441923 5.80447383,15.9352588 9.65446676,16.4459721 C10.5924115,16.6473111 10.4843759,16.9910604 10.2732156,18.2531117 C10.2388407,18.4544506 10.1111623,19.0437352 10.9656251,18.6852537 C11.8200878,18.3267723 15.5767773,15.9696337 17.2611492,14.0348159 C18.4200757,12.7580325 18.9749854,11.466517 18.9749854,10.0325911 Z" id="Shape"></path>
                        </g>
                    </g>
                </g>
            </g>
        </g>
    </g>
</svg>