<svg xmlns="http://www.w3.org/2000/svg" width="123" height="81" viewBox="0 0 123 81">
    <g fill="#FFF" fill-rule="nonzero">
        <path d="M82.5 0a3.048 3.048 0 0 0-3.047 3.047v15.61a3.048 3.048 0 0 0 6.094 0V6.227c17.55 1.547 31.36 16.328 31.36 34.273 0 18.971-15.434 34.406-34.406 34.406-18.971 0-34.407-15.435-34.407-34.406 0-10.948 5.287-21.342 14.141-27.808a3.047 3.047 0 0 0-3.593-4.922C48.222 15.378 42 27.614 42 40.5 42 62.831 60.168 81 82.5 81c22.331 0 40.5-18.168 40.5-40.5S104.832 0 82.5 0z"/>
        <path d="M62.413 28.514a3.053 3.053 0 0 0 1.094 4.165l16.933 9.907a3.027 3.027 0 0 0 4.147-1.099 3.053 3.053 0 0 0-1.094-4.165L66.56 27.415a3.023 3.023 0 0 0-4.147 1.099zM8.72 21h28.56c1.501 0 2.72-1.344 2.72-3s-1.219-3-2.72-3H8.72C7.219 15 6 16.344 6 18s1.217 3 2.72 3zM2.72 35h28.56c1.501 0 2.72-1.344 2.72-3s-1.219-3-2.72-3H2.72C1.219 29 0 30.344 0 32s1.217 3 2.72 3zM34 46c0-1.656-1.219-3-2.72-3H2.72C1.219 43 0 44.344 0 46s1.219 3 2.72 3h28.56c1.501 0 2.72-1.343 2.72-3zM40 60c0-1.656-1.219-3-2.72-3H8.72C7.219 57 6 58.344 6 60s1.219 3 2.72 3h28.56c1.501 0 2.72-1.343 2.72-3z"/>
    </g>
</svg>
