<svg xmlns="http://www.w3.org/2000/svg" width="82" height="125" viewBox="0 0 82 125">
    <g fill="#FFF" fill-rule="nonzero">
        <path d="M1.606 25.587a2.071 2.071 0 0 0-.564 1.429c0 .536.203 1.05.564 1.428l16.984 17.84a1.86 1.86 0 0 0 2.721 0 2.092 2.092 0 0 0 0-2.858L4.318 25.587a1.86 1.86 0 0 0-2.712 0zM58.333 35.465V10.368c0-1.124-1.166-2.035-2.604-2.035-1.438 0-2.604.911-2.604 2.035v25.097c0 1.124 1.166 2.035 2.604 2.035 1.438 0 2.604-.91 2.604-2.035zM28.063 1.454c-.186-.67-.742-1.198-1.46-1.383a2.198 2.198 0 0 0-2.02.483c-.531.485-.745 1.197-.559 1.867l6.246 23.208c.186.67.743 1.198 1.46 1.383a2.198 2.198 0 0 0 2.02-.483c.532-.485.745-1.196.559-1.867L28.063 1.454zM1.892 70.114c6.097 8.935 6.049 12.966 6.01 16.878-.291 28.434 18.983 37.221 30.43 37.926.874.05 1.719.08 2.564.08 10.708.13 20.957-4.435 28.158-12.54l6.36-7.168.106-.13 3.156-3.564c2.276-2.329 3.125-5.743 2.215-8.902-.911-3.158-3.437-5.554-6.584-6.248a8.234 8.234 0 0 0-1.079-6.68 7.878 7.878 0 0 0-5.67-3.497c.316-.891.48-1.832.486-2.78.01-4.27-2.934-7.951-7.03-8.786L71.55 53.89c2.25-2.293 3.114-5.649 2.261-8.777-.853-3.129-3.291-5.543-6.376-6.315-3.086-.771-6.338.22-8.507 2.592C47.382 53.99 33.03 68.326 27.37 70.679c-3.301 1.39-4.097.308-6.651-3.97a31.277 31.277 0 0 0-6.952-8.837c-3.36-2.79-7.312-2.87-10.584-.218-3.7 2.988-4.233 8.13-1.291 12.46zm70.54 20.114a4.801 4.801 0 0 1 3.467 1.47 5.114 5.114 0 0 1 1.424 3.598 5.11 5.11 0 0 1-1.492 3.57l-3.078 3.465a4.393 4.393 0 0 1-5.03-.864l-.174-.188c-1.645-1.65-1.804-4.303-.37-6.146l4.856-4.964.398.06zm-2.912-8.876a4.178 4.178 0 0 1 .233 5.58 1.97 1.97 0 0 0-.223.248l-5.574 5.7a4.413 4.413 0 0 1-4.641-.994l-.233-.238a4.715 4.715 0 0 1-.272-6.116c.777-.615 4.03-3.246 5.758-4.765a3.982 3.982 0 0 1 4.932.585h.02zm-6.797-11.427a5.021 5.021 0 0 1 1.437 3.544 6.337 6.337 0 0 1-2.039 4.19c-1.185 1.053-3.738 3.147-5.622 4.656a4.59 4.59 0 0 1-4.593-1.23l-.126-.13c-1.84-1.884-1.84-4.936 0-6.82l4.564-4.667a4.776 4.776 0 0 1 6.37.447l.009.01zM5.601 60.72c1.864-1.509 3.738-1.45 5.719.189a27.596 27.596 0 0 1 6.078 7.804c.901 1.723 2.032 3.31 3.36 4.716.036.055.075.108.116.158.165.18 3.884 4.34.097 10.386a2.012 2.012 0 0 0 .63 2.68c.88.576 2.049.334 2.642-.546a13.148 13.148 0 0 0 1.787-10.921 10.85 10.85 0 0 0 2.796-.784c7.642-3.207 25.556-22.22 32.916-30.252a4.81 4.81 0 0 1 3.496-1.59 4.87 4.87 0 0 1 3.554 1.47 5.071 5.071 0 0 1 1.44 3.55 5.071 5.071 0 0 1-1.44 3.55l-19.77 20.174a8.897 8.897 0 0 0-2.534 6.235c0 2.34.912 4.584 2.535 6.235l.106.11a8.454 8.454 0 0 0 4.962 2.491c-.688 2.914.15 5.984 2.214 8.112l.078.07.077.079a8.286 8.286 0 0 0 5.923 2.482 8.642 8.642 0 0 0 2.408 6.95l.146.168a8.378 8.378 0 0 0 4.088 2.304l-2.913 3.286-.078.09c-7.042 7.751-17.15 11.81-27.469 11.03a29.927 29.927 0 0 1-14.02-4.965H26.291c4.855-.317 9.292-3.326 13.254-8.935a2.015 2.015 0 0 0-.473-2.733 1.914 1.914 0 0 0-2.683.42c-3.233 4.606-6.7 7.069-10.311 7.317-5.04.337-8.914-3.783-8.972-3.842a1.955 1.955 0 0 0-.282-.249c-3.039-4.904-5.126-11.636-5.03-20.938.059-5.253-.407-9.998-6.709-19.212-1.466-2.105-1.864-5.143.515-7.089z"/>
        <path d="M36.255 40.228l-3.963.603 2.869 2.94-.682 4.146 3.542-1.96 3.541 1.96-.681-4.146 2.869-2.94-3.963-.603-1.766-3.77zM42.807 15.649l1.326 3.101 1.573-2.989 3.252-.347-2.25-2.469.688-3.325-2.958 1.459-2.84-1.704.422 3.377-2.437 2.275zM16.231 14.75l-2.458-2.25-.367 3.253-2.99 1.562 3.102 1.337.622 3.223 2.275-2.437 3.377.432-1.704-2.84 1.469-2.948z"/>
    </g>
</svg>
