<?xml version="1.0" encoding="UTF-8"?>
<svg width="108px" height="410px" viewBox="0 0 108 410" version="1.1" xmlns="http://www.w3.org/2000/svg" xmlns:xlink="http://www.w3.org/1999/xlink">
    <!-- Generator: Sketch 58 (84663) - https://sketch.com -->
    <title>Group 2</title>
    <desc>Created with Sketch.</desc>
    <g id="Page-1" stroke="none" stroke-width="1" fill="none" fill-rule="evenodd">
        <g id="TakeMe_Home" transform="translate(-461.000000, -1581.000000)">
            <g id="How-It-Works" transform="translate(123.000000, 1468.000000)">
                <g transform="translate(337.000000, 0.000000)" id="Group-2">
                    <g transform="translate(0.000000, 94.000000)">
                        <path d="M33.78,83.28 C28.8199752,83.28 24.4333524,82.1200116 20.62,79.8 C16.8066476,77.4799884 13.8200108,74.120022 11.66,69.72 C9.4999892,65.319978 8.42,60.0800304 8.42,54 C8.42,47.9199696 9.4999892,42.680022 11.66,38.28 C13.8200108,33.879978 16.8066476,30.5200116 20.62,28.2 C24.4333524,25.8799884 28.8199752,24.72 33.78,24.72 C38.7400248,24.72 43.1266476,25.8799884 46.94,28.2 C50.7533524,30.5200116 53.7399892,33.879978 55.9,38.28 C58.0600108,42.680022 59.14,47.9199696 59.14,54 C59.14,60.0800304 58.0600108,65.319978 55.9,69.72 C53.7399892,74.120022 50.7533524,77.4799884 46.94,79.8 C43.1266476,82.1200116 38.7400248,83.28 33.78,83.28 Z M33.78,68.16 C38.046688,68.16 40.18,63.4400472 40.18,54 C40.18,44.5599528 38.046688,39.84 33.78,39.84 C29.5810372,39.84 27.4482617,44.4113022 27.3816125,53.5540417 L27.38,54 C27.38,63.4400472 29.513312,68.16 33.78,68.16 Z M90.34,26 L90.34,82 L71.46,82 L71.46,40.24 L61.86,40.24 L61.86,26 L90.34,26 Z" id="01" fill="#005F5A" fill-rule="nonzero"></path>
                        <path d="M27.78,78.28 C22.8199752,78.28 18.4333524,77.1200116 14.62,74.8 C10.8066476,72.4799884 7.8200108,69.120022 5.66,64.72 C3.4999892,60.319978 2.42,55.0800304 2.42,49 C2.42,42.9199696 3.4999892,37.680022 5.66,33.28 C7.8200108,28.879978 10.8066476,25.5200116 14.62,23.2 C18.4333524,20.8799884 22.8199752,19.72 27.78,19.72 C32.7400248,19.72 37.1266476,20.8799884 40.94,23.2 C44.7533524,25.5200116 47.7399892,28.879978 49.9,33.28 C52.0600108,37.680022 53.14,42.9199696 53.14,49 C53.14,55.0800304 52.0600108,60.319978 49.9,64.72 C47.7399892,69.120022 44.7533524,72.4799884 40.94,74.8 C37.1266476,77.1200116 32.7400248,78.28 27.78,78.28 Z M27.78,63.16 C32.046688,63.16 34.18,58.4400472 34.18,49 C34.18,39.5599528 32.046688,34.84 27.78,34.84 C23.5810372,34.84 21.4482617,39.4113022 21.3816125,48.5540417 L21.38,49 C21.38,58.4400472 23.513312,63.16 27.78,63.16 Z M84.34,21 L84.34,77 L65.46,77 L65.46,35.24 L55.86,35.24 L55.86,21 L84.34,21 Z" id="01" stroke="#005F5A" fill="#FFFFFF" fill-rule="nonzero"></path>
                        <path d="M33.68,255.28 C28.7199752,255.28 24.3333524,254.120012 20.52,251.8 C16.7066476,249.479988 13.7200108,246.120022 11.56,241.72 C9.3999892,237.319978 8.32,232.08003 8.32,226 C8.32,219.91997 9.3999892,214.680022 11.56,210.28 C13.7200108,205.879978 16.7066476,202.520012 20.52,200.2 C24.3333524,197.879988 28.7199752,196.72 33.68,196.72 C38.6400248,196.72 43.0266476,197.879988 46.84,200.2 C50.6533524,202.520012 53.6399892,205.879978 55.8,210.28 C57.9600108,214.680022 59.04,219.91997 59.04,226 C59.04,232.08003 57.9600108,237.319978 55.8,241.72 C53.6399892,246.120022 50.6533524,249.479988 46.84,251.8 C43.0266476,254.120012 38.6400248,255.28 33.68,255.28 Z M33.68,240.16 C37.946688,240.16 40.08,235.440047 40.08,226 C40.08,216.559953 37.946688,211.84 33.68,211.84 C29.4810372,211.84 27.3482617,216.411302 27.2816125,225.554042 L27.28,226 C27.28,235.440047 29.413312,240.16 33.68,240.16 Z M108.48,239.36 L108.48,254 L63.6,254 L63.6,242.4 L83.84,223.68 C85.6000088,222.026658 86.7733304,220.613339 87.36,219.44 C87.9466696,218.266661 88.24,217.120006 88.24,216 C88.24,214.613326 87.773338,213.533337 86.84,212.76 C85.906662,211.986663 84.5600088,211.6 82.8,211.6 C81.0933248,211.6 79.4933408,212.053329 78,212.96 C76.5066592,213.866671 75.360004,215.146658 74.56,216.8 L60.32,209.68 C62.453344,205.67998 65.5733128,202.520012 69.68,200.2 C73.7866872,197.879988 78.7466376,196.72 84.56,196.72 C88.9866888,196.72 92.9066496,197.439993 96.32,198.88 C99.7333504,200.320007 102.39999,202.37332 104.32,205.04 C106.24001,207.70668 107.2,210.773316 107.2,214.24 C107.2,217.333349 106.546673,220.226653 105.24,222.92 C103.981722,225.513593 101.573625,228.440973 98.0156398,231.702221 L89.6,239.36 L108.48,239.36 Z" id="02" fill="#005F5A" fill-rule="nonzero"></path>
                        <path d="M27.68,251.28 C22.7199752,251.28 18.3333524,250.120012 14.52,247.8 C10.7066476,245.479988 7.7200108,242.120022 5.56,237.72 C3.3999892,233.319978 2.32,228.08003 2.32,222 C2.32,215.91997 3.3999892,210.680022 5.56,206.28 C7.7200108,201.879978 10.7066476,198.520012 14.52,196.2 C18.3333524,193.879988 22.7199752,192.72 27.68,192.72 C32.6400248,192.72 37.0266476,193.879988 40.84,196.2 C44.6533524,198.520012 47.6399892,201.879978 49.8,206.28 C51.9600108,210.680022 53.04,215.91997 53.04,222 C53.04,228.08003 51.9600108,233.319978 49.8,237.72 C47.6399892,242.120022 44.6533524,245.479988 40.84,247.8 C37.0266476,250.120012 32.6400248,251.28 27.68,251.28 Z M27.68,236.16 C31.946688,236.16 34.08,231.440047 34.08,222 C34.08,212.559953 31.946688,207.84 27.68,207.84 C23.4810372,207.84 21.3482617,212.411302 21.2816125,221.554042 L21.28,222 C21.28,231.440047 23.413312,236.16 27.68,236.16 Z M102.48,235.36 L102.48,250 L57.6,250 L57.6,238.4 L77.84,219.68 C79.6000088,218.026658 80.7733304,216.613339 81.36,215.44 C81.9466696,214.266661 82.24,213.120006 82.24,212 C82.24,210.613326 81.773338,209.533337 80.84,208.76 C79.906662,207.986663 78.5600088,207.6 76.8,207.6 C75.0933248,207.6 73.4933408,208.053329 72,208.96 C70.5066592,209.866671 69.360004,211.146658 68.56,212.8 L54.32,205.68 C56.453344,201.67998 59.5733128,198.520012 63.68,196.2 C67.7866872,193.879988 72.7466376,192.72 78.56,192.72 C82.9866888,192.72 86.9066496,193.439993 90.32,194.88 C93.7333504,196.320007 96.3999904,198.37332 98.32,201.04 C100.24001,203.70668 101.2,206.773316 101.2,210.24 C101.2,213.333349 100.546673,216.226653 99.24,218.92 C97.9817221,221.513593 95.5736248,224.440973 92.0156398,227.702221 L83.6,235.36 L102.48,235.36 Z" id="02" stroke="#005F5A" fill="#FFFFFF" fill-rule="nonzero"></path>
                        <path d="M33.94,428.28 C28.9799752,428.28 24.5933524,427.120012 20.78,424.8 C16.9666476,422.479988 13.9800108,419.120022 11.82,414.72 C9.6599892,410.319978 8.58,405.08003 8.58,399 C8.58,392.91997 9.6599892,387.680022 11.82,383.28 C13.9800108,378.879978 16.9666476,375.520012 20.78,373.2 C24.5933524,370.879988 28.9799752,369.72 33.94,369.72 C38.9000248,369.72 43.2866476,370.879988 47.1,373.2 C50.9133524,375.520012 53.8999892,378.879978 56.06,383.28 C58.2200108,387.680022 59.3,392.91997 59.3,399 C59.3,405.08003 58.2200108,410.319978 56.06,414.72 C53.8999892,419.120022 50.9133524,422.479988 47.1,424.8 C43.2866476,427.120012 38.9000248,428.28 33.94,428.28 Z M33.94,413.16 C38.1389628,413.16 40.2717383,408.588698 40.3383875,399.445958 L40.34,399 C40.34,389.559953 38.206688,384.84 33.94,384.84 C29.7410372,384.84 27.6082617,389.411302 27.5416125,398.554042 L27.54,399 C27.54,408.440047 29.673312,413.16 33.94,413.16 Z M95.38,393.16 C99.7000216,394.226672 103.019988,396.159986 105.34,398.96 C107.660012,401.760014 108.82,405.133314 108.82,409.08 C108.82,412.440017 107.900009,415.573319 106.06,418.48 C104.219991,421.386681 101.380019,423.746658 97.54,425.56 C93.6999808,427.373342 88.9266952,428.28 83.22,428.28 C79.2733136,428.28 75.3400196,427.853338 71.42,427 C67.4999804,426.146662 64.073348,424.893342 61.14,423.24 L67.54,409.32 C69.8333448,410.65334 72.2999868,411.666663 74.94,412.36 C77.5800132,413.053337 80.1266544,413.4 82.58,413.4 C84.7666776,413.4 86.52666,413.02667 87.86,412.28 C89.19334,411.53333 89.86,410.466674 89.86,409.08 C89.86,406.519987 87.6466888,405.24 83.22,405.24 L75.78,405.24 L75.78,393.64 L84.02,385.24 L64.02,385.24 L64.02,371 L105.78,371 L105.78,382.6 L95.38,393.16 Z" id="03" fill="#005F5A" fill-rule="nonzero"></path>
                        <path d="M27.94,423.28 C22.9799752,423.28 18.5933524,422.120012 14.78,419.8 C10.9666476,417.479988 7.9800108,414.120022 5.82,409.72 C3.6599892,405.319978 2.58,400.08003 2.58,394 C2.58,387.91997 3.6599892,382.680022 5.82,378.28 C7.9800108,373.879978 10.9666476,370.520012 14.78,368.2 C18.5933524,365.879988 22.9799752,364.72 27.94,364.72 C32.9000248,364.72 37.2866476,365.879988 41.1,368.2 C44.9133524,370.520012 47.8999892,373.879978 50.06,378.28 C52.2200108,382.680022 53.3,387.91997 53.3,394 C53.3,400.08003 52.2200108,405.319978 50.06,409.72 C47.8999892,414.120022 44.9133524,417.479988 41.1,419.8 C37.2866476,422.120012 32.9000248,423.28 27.94,423.28 Z M27.94,408.16 C32.1389628,408.16 34.2717383,403.588698 34.3383875,394.445958 L34.34,394 C34.34,384.559953 32.206688,379.84 27.94,379.84 C23.7410372,379.84 21.6082617,384.411302 21.5416125,393.554042 L21.54,394 C21.54,403.440047 23.673312,408.16 27.94,408.16 Z M89.38,388.16 C93.7000216,389.226672 97.0199884,391.159986 99.34,393.96 C101.660012,396.760014 102.82,400.133314 102.82,404.08 C102.82,407.440017 101.900009,410.573319 100.06,413.48 C98.2199908,416.386681 95.3800192,418.746658 91.54,420.56 C87.6999808,422.373342 82.9266952,423.28 77.22,423.28 C73.2733136,423.28 69.3400196,422.853338 65.42,422 C61.4999804,421.146662 58.073348,419.893342 55.14,418.24 L61.54,404.32 C63.8333448,405.65334 66.2999868,406.666663 68.94,407.36 C71.5800132,408.053337 74.1266544,408.4 76.58,408.4 C78.7666776,408.4 80.52666,408.02667 81.86,407.28 C83.19334,406.53333 83.86,405.466674 83.86,404.08 C83.86,401.519987 81.6466888,400.24 77.22,400.24 L69.78,400.24 L69.78,388.64 L78.02,380.24 L58.02,380.24 L58.02,366 L99.78,366 L99.78,377.6 L89.38,388.16 Z" id="03" stroke="#005F5A" fill="#FFFFFF" fill-rule="nonzero"></path>
                        <rect id="Rectangle" fill="#005F5A" x="52" y="89" width="12" height="25"></rect>
                        <rect id="Rectangle" fill="#005F5A" x="52" y="124" width="12" height="25"></rect>
                        <rect id="Rectangle" fill="#005F5A" x="52" y="159" width="12" height="25"></rect>
                        <rect id="Rectangle" fill="#005F5A" x="52" y="263" width="12" height="25"></rect>
                        <rect id="Rectangle" fill="#005F5A" x="52" y="298" width="12" height="25"></rect>
                        <rect id="Rectangle" fill="#005F5A" x="52" y="333" width="12" height="25"></rect>
                    </g>
                </g>
            </g>
        </g>
    </g>
</svg>