<svg xmlns="http://www.w3.org/2000/svg" width="76" height="81" viewBox="0 0 76 81">
    <path fill="#FFF" fill-rule="nonzero" d="M71.33 13.239L40.93.58a7.629 7.629 0 0 0-5.843 0L4.687 13.24A7.586 7.586 0 0 0 0 20.248c0 31.406 18.13 53.114 35.07 60.17a7.629 7.629 0 0 0 5.843 0C54.483 74.77 76 55.263 76 20.249a7.596 7.596 0 0 0-4.67-7.01zM38.981 75.75a2.592 2.592 0 0 1-1.948 0c-15.5-6.139-31.967-27.657-31.967-55.503 0-1.028.617-1.946 1.551-2.342l30.4-12.657a2.592 2.592 0 0 1 1.948 0l30.4 12.657a2.495 2.495 0 0 1 1.552 2.342c.015 27.846-16.451 49.364-31.936 55.503zm21.565-51.42a1.917 1.917 0 0 0-2.692-.017L31.983 49.961 21.058 38.965a1.917 1.917 0 0 0-2.691-.016l-1.346 1.345a1.914 1.914 0 0 0-.016 2.69l13.6 13.702a1.917 1.917 0 0 0 2.692.016l28.58-28.322a1.914 1.914 0 0 0 .015-2.69l-1.345-1.36z"/>
</svg>
